# xmcd
#
# Track frame offsets: 
#        150
#        14989
#        33394
#        46509
#        63658
#        83305
#        107988
#        126587
#        146666
#        163820
#        185892
#        205922
#        212060
#        226527
#        241102
#        275405
#        304088
#
# Disc length: 4464 seconds
#
# Revision: 0
# Processed by: cddbd v1.5.2PL0 Copyright (c) Steve Scherf et al.
# Submitted via: ExactAudioCopy v0.95b3
#
DISCID=f3116e11
DTITLE=Robert Plant  - Nine lives - Mighty Rearranger  [remastered wit
DTITLE=h bonus tracks]
DYEAR=1900
DGENRE=
TTITLE0=Another Tribe
TTITLE1=Shine It All Around
TTITLE2=Freedom Fries
TTITLE3=Tin Pan Valley
TTITLE4=All The King's Horses
TTITLE5=The Enchanter
TTITLE6=Takamba
TTITLE7=Dancing In Heaven
TTITLE8=Somebody Knocking
TTITLE9=Let The Four Winds Blow
TTITLE10=Mighty Rearranger
TTITLE11=Brother Ray
TTITLE12=Red, White And Blue
TTITLE13=All The Money In The World
TTITLE14=Shine It All Around (Girls Remix)
TTITLE15=Tin Pan Valley (Girls Remix)
TTITLE16=The Enchanter (Unkle Reconstruction)
EXTD=
EXTT0=
EXTT1=
EXTT2=
EXTT3=
EXTT4=
EXTT5=
EXTT6=
EXTT7=
EXTT8=
EXTT9=
EXTT10=
EXTT11=
EXTT12=
EXTT13=
EXTT14=
EXTT15=
EXTT16=
PLAYORDER=
